<svg width="45" height="45" viewBox="0 0 45 45" fill="none" xmlns="http://www.w3.org/2000/svg">
<mask id="path-1-inside-1_8_246" fill="white">
<path d="M44.7417 21.8592C44.7467 21.8269 44.75 21.794 44.75 21.7602C44.75 21.7095 44.7436 21.6604 44.7327 21.613C44.5841 17.6026 43.3787 13.7791 41.2487 10.4637C41.2132 10.3128 41.1256 10.1824 41.0056 10.092C40.2019 8.89451 39.2758 7.76642 38.2331 6.72376C37.7446 6.23522 37.2366 5.77333 36.7122 5.33651C36.6515 5.25762 36.5742 5.19491 36.4872 5.15137C32.5396 1.9485 27.6539 0.206909 22.5 0.206909C16.5568 0.206909 10.9694 2.52134 6.76685 6.72376C2.76395 10.7267 0.475722 15.9864 0.267243 21.613C0.256357 21.6604 0.25 21.7095 0.25 21.7602C0.25 21.7939 0.253396 21.8269 0.258273 21.8592C0.253048 22.0581 0.25 22.2572 0.25 22.4569C0.25 22.856 0.261321 23.2533 0.282047 23.6488C0.261408 23.7123 0.25 23.7799 0.25 23.8503C0.25 23.9486 0.272381 24.0415 0.31122 24.1251C0.702576 29.4398 2.95997 34.3832 6.76677 38.1901C10.9694 42.3925 16.5568 44.7069 22.5 44.7069C28.4432 44.7069 34.0306 42.3925 38.2331 38.1901C42.0399 34.3832 44.2974 29.4398 44.6887 24.1251C44.7276 24.0415 44.7499 23.9486 44.7499 23.8503C44.7499 23.7799 44.7385 23.7123 44.7179 23.6488C44.7386 23.2533 44.7499 22.856 44.7499 22.4569C44.75 22.2572 44.7469 22.0581 44.7417 21.8592ZM43.3997 21.1071H29.4667C29.0586 21.1071 28.7265 20.7751 28.7265 20.3669C28.7265 19.9587 29.0586 19.6267 29.4667 19.6267C29.8274 19.6267 30.1199 19.3342 30.1199 18.9735C30.1199 17.7971 31.077 16.84 32.2517 16.84C32.2614 16.8403 32.2901 16.8442 32.3111 16.8471C32.3514 16.8526 32.3917 16.8578 32.4326 16.8613C32.7303 16.8864 33.0067 16.7067 33.1046 16.4248C33.5972 15.0063 34.9349 14.0533 36.4335 14.0533C36.4759 14.0533 36.5175 14.0566 36.5592 14.0595L36.635 14.0643C36.9256 14.0807 37.1921 13.903 37.2884 13.6283C37.7403 12.3392 38.8928 11.4365 40.2261 11.2885C42.0855 14.2269 43.177 17.5833 43.3997 21.1071ZM19.5387 1.94877C19.5949 1.87396 19.6321 1.79106 19.6522 1.70545C20.5884 1.57901 21.5391 1.51317 22.5 1.51317C27.3405 1.51317 31.9296 3.1453 35.641 6.14735C35.733 6.46512 35.7803 6.79474 35.7803 7.1301C35.7803 9.07486 34.1982 10.657 32.2534 10.657C31.5162 10.657 30.8076 10.4285 30.2042 9.99621C30.0513 9.88666 29.8587 9.84834 29.6757 9.89102C29.4926 9.9336 29.3368 10.0531 29.2481 10.2188C28.8731 10.9188 28.156 11.3537 27.3767 11.3537C26.2003 11.3537 25.2432 10.3965 25.2432 9.22012C25.2432 8.85942 24.9507 8.56699 24.59 8.56699C23.6196 8.56699 22.7733 7.90576 22.5317 6.95907C22.4562 6.66333 22.1857 6.45903 21.8809 6.46765C21.8389 6.46878 21.8027 6.47305 21.7746 6.47688C20.2272 6.46129 18.9731 5.1977 18.9731 3.64673C18.9731 3.02852 19.1687 2.4414 19.5387 1.94877ZM7.69056 7.64747C8.08357 7.25446 8.48999 6.87982 8.90773 6.52225C8.94979 6.54942 8.99525 6.57267 9.04454 6.59009C10.4515 7.08682 11.3968 8.42373 11.3968 9.91679C11.3968 10.0518 11.3861 10.1969 11.3633 10.3733C11.3292 10.6369 11.4583 10.8949 11.6899 11.0257C12.7302 11.6133 13.4005 12.6861 13.479 13.8643C12.7782 13.2103 11.855 12.7996 10.8537 12.7518C10.067 11.0637 8.36511 9.96033 6.47652 9.96033C6.19175 9.96033 5.90986 9.98567 5.63337 10.0344C6.25332 9.19626 6.93972 8.3983 7.69056 7.64747ZM4.38981 11.9228C4.43709 11.9054 4.48325 11.883 4.52696 11.8539C5.10494 11.4697 5.77906 11.2666 6.47652 11.2666C7.97506 11.2666 9.31276 12.2196 9.80531 13.638C9.90188 13.9161 10.1732 14.0953 10.4665 14.0754C10.5145 14.0721 10.5615 14.0662 10.6086 14.0596C10.6257 14.0573 10.6428 14.0542 10.6566 14.0533C11.9995 14.0533 13.1659 15.0076 13.4302 16.3225C13.4927 16.6336 13.7712 16.8554 14.087 16.8468C14.1202 16.8459 14.1494 16.8431 14.1721 16.8402C15.3337 16.8574 16.2735 17.8077 16.2735 18.9735C16.2735 20.15 15.3163 21.1071 14.1399 21.1071H1.60033C1.80715 17.8341 2.76455 14.7062 4.38981 11.9228ZM37.3094 37.2663C36.2755 38.3003 35.1518 39.2115 33.957 39.9956C33.8647 39.9457 33.759 39.9173 33.6468 39.9173H30.1634C29.8027 39.9173 29.5103 40.2097 29.5103 40.5704C29.5103 40.9311 29.8027 41.2235 30.1634 41.2235H31.8199C28.96 42.6472 25.788 43.4006 22.5 43.4006C19.212 43.4006 16.04 42.6472 13.1801 41.2235H24.5902C24.9509 41.2235 25.2433 40.9311 25.2433 40.5704C25.2433 40.2097 24.9509 39.9173 24.5902 39.9173H11.3532C11.241 39.9173 11.1353 39.9457 11.043 39.9956C9.84824 39.2116 8.72451 38.3003 7.69056 37.2663C4.22112 33.797 2.11926 29.3248 1.65467 24.5034H43.3453C42.8807 29.3248 40.7789 33.797 37.3094 37.2663ZM19.0347 23.1971C19.3421 21.5635 20.7785 20.3233 22.5 20.3233C24.2215 20.3233 25.658 21.5635 25.9653 23.1971H19.0347ZM43.4295 23.1971H27.2878C26.9678 20.84 24.9434 19.0171 22.5 19.0171C20.0566 19.0171 18.0321 20.84 17.7122 23.1971H1.57054C1.5621 22.951 1.55626 22.7044 1.55626 22.4569C1.55626 22.4424 1.55678 22.4279 1.55678 22.4134H14.8366C15.0239 22.4134 15.1924 22.334 15.3116 22.2077C16.6331 21.7274 17.5797 20.459 17.5797 18.9735C17.5797 17.2245 16.2675 15.776 14.5757 15.5612C14.5741 15.5565 14.5723 15.552 14.5707 15.5474C14.7179 15.0793 14.7931 14.5923 14.7931 14.0967C14.7931 12.5023 14.0002 11.0141 12.6981 10.1168C12.7015 10.0486 12.703 9.98237 12.703 9.91671C12.703 8.08245 11.6611 6.42062 10.0558 5.60578C12.4322 3.84302 15.1342 2.61879 18.01 1.99379C17.7843 2.51037 17.6668 3.06928 17.6668 3.64673C17.6668 5.80119 19.3225 7.57623 21.4283 7.76642C21.88 8.844 22.8473 9.61714 23.9893 9.82039C24.2741 11.432 25.6847 12.6599 27.3767 12.6599C28.4068 12.6599 29.3678 12.194 30.0141 11.4107C30.7032 11.7738 31.4662 11.9633 32.2534 11.9633C34.8208 11.9633 36.9262 9.95084 37.0771 7.4207C37.1548 7.49603 37.2328 7.57083 37.3094 7.64747C38.0828 8.42086 38.7872 9.24459 39.4217 10.1104C38.0327 10.4656 36.8536 11.4291 36.2369 12.751C34.4272 12.8245 32.815 13.9097 32.0558 15.5394C30.4391 15.6314 29.1175 16.8451 28.8593 18.4125C28.0265 18.6717 27.4203 19.4498 27.4203 20.3669C27.4203 21.4953 28.3383 22.4134 29.4667 22.4134H43.4432C43.4432 22.4279 43.4437 22.4424 43.4437 22.4569C43.4437 22.7044 43.4379 22.951 43.4295 23.1971Z"/>
</mask>
<path d="M44.7417 21.8592C44.7467 21.8269 44.75 21.794 44.75 21.7602C44.75 21.7095 44.7436 21.6604 44.7327 21.613C44.5841 17.6026 43.3787 13.7791 41.2487 10.4637C41.2132 10.3128 41.1256 10.1824 41.0056 10.092C40.2019 8.89451 39.2758 7.76642 38.2331 6.72376C37.7446 6.23522 37.2366 5.77333 36.7122 5.33651C36.6515 5.25762 36.5742 5.19491 36.4872 5.15137C32.5396 1.9485 27.6539 0.206909 22.5 0.206909C16.5568 0.206909 10.9694 2.52134 6.76685 6.72376C2.76395 10.7267 0.475722 15.9864 0.267243 21.613C0.256357 21.6604 0.25 21.7095 0.25 21.7602C0.25 21.7939 0.253396 21.8269 0.258273 21.8592C0.253048 22.0581 0.25 22.2572 0.25 22.4569C0.25 22.856 0.261321 23.2533 0.282047 23.6488C0.261408 23.7123 0.25 23.7799 0.25 23.8503C0.25 23.9486 0.272381 24.0415 0.31122 24.1251C0.702576 29.4398 2.95997 34.3832 6.76677 38.1901C10.9694 42.3925 16.5568 44.7069 22.5 44.7069C28.4432 44.7069 34.0306 42.3925 38.2331 38.1901C42.0399 34.3832 44.2974 29.4398 44.6887 24.1251C44.7276 24.0415 44.7499 23.9486 44.7499 23.8503C44.7499 23.7799 44.7385 23.7123 44.7179 23.6488C44.7386 23.2533 44.7499 22.856 44.7499 22.4569C44.75 22.2572 44.7469 22.0581 44.7417 21.8592ZM43.3997 21.1071H29.4667C29.0586 21.1071 28.7265 20.7751 28.7265 20.3669C28.7265 19.9587 29.0586 19.6267 29.4667 19.6267C29.8274 19.6267 30.1199 19.3342 30.1199 18.9735C30.1199 17.7971 31.077 16.84 32.2517 16.84C32.2614 16.8403 32.2901 16.8442 32.3111 16.8471C32.3514 16.8526 32.3917 16.8578 32.4326 16.8613C32.7303 16.8864 33.0067 16.7067 33.1046 16.4248C33.5972 15.0063 34.9349 14.0533 36.4335 14.0533C36.4759 14.0533 36.5175 14.0566 36.5592 14.0595L36.635 14.0643C36.9256 14.0807 37.1921 13.903 37.2884 13.6283C37.7403 12.3392 38.8928 11.4365 40.2261 11.2885C42.0855 14.2269 43.177 17.5833 43.3997 21.1071ZM19.5387 1.94877C19.5949 1.87396 19.6321 1.79106 19.6522 1.70545C20.5884 1.57901 21.5391 1.51317 22.5 1.51317C27.3405 1.51317 31.9296 3.1453 35.641 6.14735C35.733 6.46512 35.7803 6.79474 35.7803 7.1301C35.7803 9.07486 34.1982 10.657 32.2534 10.657C31.5162 10.657 30.8076 10.4285 30.2042 9.99621C30.0513 9.88666 29.8587 9.84834 29.6757 9.89102C29.4926 9.9336 29.3368 10.0531 29.2481 10.2188C28.8731 10.9188 28.156 11.3537 27.3767 11.3537C26.2003 11.3537 25.2432 10.3965 25.2432 9.22012C25.2432 8.85942 24.9507 8.56699 24.59 8.56699C23.6196 8.56699 22.7733 7.90576 22.5317 6.95907C22.4562 6.66333 22.1857 6.45903 21.8809 6.46765C21.8389 6.46878 21.8027 6.47305 21.7746 6.47688C20.2272 6.46129 18.9731 5.1977 18.9731 3.64673C18.9731 3.02852 19.1687 2.4414 19.5387 1.94877ZM7.69056 7.64747C8.08357 7.25446 8.48999 6.87982 8.90773 6.52225C8.94979 6.54942 8.99525 6.57267 9.04454 6.59009C10.4515 7.08682 11.3968 8.42373 11.3968 9.91679C11.3968 10.0518 11.3861 10.1969 11.3633 10.3733C11.3292 10.6369 11.4583 10.8949 11.6899 11.0257C12.7302 11.6133 13.4005 12.6861 13.479 13.8643C12.7782 13.2103 11.855 12.7996 10.8537 12.7518C10.067 11.0637 8.36511 9.96033 6.47652 9.96033C6.19175 9.96033 5.90986 9.98567 5.63337 10.0344C6.25332 9.19626 6.93972 8.3983 7.69056 7.64747ZM4.38981 11.9228C4.43709 11.9054 4.48325 11.883 4.52696 11.8539C5.10494 11.4697 5.77906 11.2666 6.47652 11.2666C7.97506 11.2666 9.31276 12.2196 9.80531 13.638C9.90188 13.9161 10.1732 14.0953 10.4665 14.0754C10.5145 14.0721 10.5615 14.0662 10.6086 14.0596C10.6257 14.0573 10.6428 14.0542 10.6566 14.0533C11.9995 14.0533 13.1659 15.0076 13.4302 16.3225C13.4927 16.6336 13.7712 16.8554 14.087 16.8468C14.1202 16.8459 14.1494 16.8431 14.1721 16.8402C15.3337 16.8574 16.2735 17.8077 16.2735 18.9735C16.2735 20.15 15.3163 21.1071 14.1399 21.1071H1.60033C1.80715 17.8341 2.76455 14.7062 4.38981 11.9228ZM37.3094 37.2663C36.2755 38.3003 35.1518 39.2115 33.957 39.9956C33.8647 39.9457 33.759 39.9173 33.6468 39.9173H30.1634C29.8027 39.9173 29.5103 40.2097 29.5103 40.5704C29.5103 40.9311 29.8027 41.2235 30.1634 41.2235H31.8199C28.96 42.6472 25.788 43.4006 22.5 43.4006C19.212 43.4006 16.04 42.6472 13.1801 41.2235H24.5902C24.9509 41.2235 25.2433 40.9311 25.2433 40.5704C25.2433 40.2097 24.9509 39.9173 24.5902 39.9173H11.3532C11.241 39.9173 11.1353 39.9457 11.043 39.9956C9.84824 39.2116 8.72451 38.3003 7.69056 37.2663C4.22112 33.797 2.11926 29.3248 1.65467 24.5034H43.3453C42.8807 29.3248 40.7789 33.797 37.3094 37.2663ZM19.0347 23.1971C19.3421 21.5635 20.7785 20.3233 22.5 20.3233C24.2215 20.3233 25.658 21.5635 25.9653 23.1971H19.0347ZM43.4295 23.1971H27.2878C26.9678 20.84 24.9434 19.0171 22.5 19.0171C20.0566 19.0171 18.0321 20.84 17.7122 23.1971H1.57054C1.5621 22.951 1.55626 22.7044 1.55626 22.4569C1.55626 22.4424 1.55678 22.4279 1.55678 22.4134H14.8366C15.0239 22.4134 15.1924 22.334 15.3116 22.2077C16.6331 21.7274 17.5797 20.459 17.5797 18.9735C17.5797 17.2245 16.2675 15.776 14.5757 15.5612C14.5741 15.5565 14.5723 15.552 14.5707 15.5474C14.7179 15.0793 14.7931 14.5923 14.7931 14.0967C14.7931 12.5023 14.0002 11.0141 12.6981 10.1168C12.7015 10.0486 12.703 9.98237 12.703 9.91671C12.703 8.08245 11.6611 6.42062 10.0558 5.60578C12.4322 3.84302 15.1342 2.61879 18.01 1.99379C17.7843 2.51037 17.6668 3.06928 17.6668 3.64673C17.6668 5.80119 19.3225 7.57623 21.4283 7.76642C21.88 8.844 22.8473 9.61714 23.9893 9.82039C24.2741 11.432 25.6847 12.6599 27.3767 12.6599C28.4068 12.6599 29.3678 12.194 30.0141 11.4107C30.7032 11.7738 31.4662 11.9633 32.2534 11.9633C34.8208 11.9633 36.9262 9.95084 37.0771 7.4207C37.1548 7.49603 37.2328 7.57083 37.3094 7.64747C38.0828 8.42086 38.7872 9.24459 39.4217 10.1104C38.0327 10.4656 36.8536 11.4291 36.2369 12.751C34.4272 12.8245 32.815 13.9097 32.0558 15.5394C30.4391 15.6314 29.1175 16.8451 28.8593 18.4125C28.0265 18.6717 27.4203 19.4498 27.4203 20.3669C27.4203 21.4953 28.3383 22.4134 29.4667 22.4134H43.4432C43.4432 22.4279 43.4437 22.4424 43.4437 22.4569C43.4437 22.7044 43.4379 22.951 43.4295 23.1971Z" fill="currentColor" stroke="currentColor" stroke-width="2" mask="url(#path-1-inside-1_8_246)"/>
<path d="M23.1966 26.0934H21.8033C21.7187 26.0934 21.6501 26.0248 21.6501 25.9402C21.6501 25.8557 21.7187 25.7871 21.8033 25.7871H23.1966C23.2812 25.7871 23.3498 25.8557 23.3498 25.9402C23.3498 26.0248 23.2812 26.0934 23.1966 26.0934Z" fill="currentColor" stroke="currentColor"/>
<path d="M26.6801 30.2734H18.32C18.2354 30.2734 18.1669 30.2049 18.1669 30.1203C18.1669 30.0357 18.2354 29.9672 18.32 29.9672H26.6801C26.7646 29.9672 26.8332 30.0357 26.8332 30.1203C26.8332 30.2049 26.7646 30.2734 26.6801 30.2734Z" fill="currentColor" stroke="currentColor"/>
<path d="M29.4667 34.4534H15.5333C15.4487 34.4534 15.3801 34.3848 15.3801 34.3003C15.3801 34.2157 15.4487 34.1472 15.5333 34.1472H29.4667C29.5513 34.1472 29.6199 34.2157 29.6199 34.3003C29.6199 34.3848 29.5513 34.4534 29.4667 34.4534Z" fill="currentColor" stroke="currentColor"/>
<path d="M32.2535 38.6335H12.7466C12.6621 38.6335 12.5935 38.565 12.5935 38.4804C12.5935 38.3958 12.6621 38.3273 12.7466 38.3273H32.2535C32.338 38.3273 32.4066 38.3958 32.4066 38.4804C32.4066 38.565 32.338 38.6335 32.2535 38.6335Z" fill="currentColor" stroke="currentColor"/>
<path d="M26.6801 40.4172H28.0734C28.158 40.4172 28.2265 40.4858 28.2265 40.5704C28.2265 40.6549 28.1579 40.7235 28.0734 40.7235H26.6801C26.5955 40.7235 26.527 40.6549 26.527 40.5704C26.527 40.4858 26.5955 40.4172 26.6801 40.4172Z" fill="currentColor" stroke="currentColor"/>
<path d="M18.3199 36.5435C18.2353 36.5435 18.1667 36.4749 18.1667 36.3904C18.1667 36.3058 18.2353 36.2372 18.3199 36.2372H30.8601C30.9446 36.2372 31.0132 36.3058 31.0132 36.3904C31.0132 36.4749 30.9446 36.5435 30.8601 36.5435H18.3199Z" fill="currentColor" stroke="currentColor"/>
<path d="M16.2301 36.5435H14.1399C14.0554 36.5435 13.9868 36.4749 13.9868 36.3904C13.9868 36.3058 14.0554 36.2372 14.1399 36.2372H16.2301C16.3146 36.2372 16.3832 36.3058 16.3832 36.3904C16.3832 36.4749 16.3146 36.5435 16.2301 36.5435Z" fill="currentColor" stroke="currentColor"/>
<path d="M25.9833 32.3635C25.8988 32.3635 25.8302 32.2949 25.8302 32.2103C25.8302 32.1258 25.8988 32.0572 25.9833 32.0572H28.77C28.8546 32.0572 28.9232 32.1258 28.9232 32.2103C28.9232 32.2949 28.8546 32.3635 28.77 32.3635H25.9833Z" fill="currentColor" stroke="currentColor"/>
<path d="M23.8933 32.3635H16.9266C16.842 32.3635 16.7734 32.2949 16.7734 32.2103C16.7734 32.1258 16.842 32.0572 16.9266 32.0572H23.8933C23.9779 32.0572 24.0464 32.1258 24.0464 32.2103C24.0464 32.2949 23.9779 32.3635 23.8933 32.3635Z" fill="currentColor" stroke="currentColor"/>
<path d="M22.5001 28.1834C22.4155 28.1834 22.3469 28.1148 22.3469 28.0303C22.3469 27.9457 22.4155 27.8771 22.5001 27.8771H25.2867C25.3713 27.8771 25.4399 27.9457 25.4399 28.0303C25.4399 28.1148 25.3713 28.1834 25.2867 28.1834H22.5001Z" fill="currentColor" stroke="currentColor"/>
<path d="M20.41 28.1834H19.7133C19.6288 28.1834 19.5602 28.1148 19.5602 28.0303C19.5602 27.9457 19.6288 27.8771 19.7133 27.8771H20.41C20.4945 27.8771 20.5631 27.9457 20.5631 28.0303C20.5631 28.1148 20.4945 28.1834 20.41 28.1834Z" fill="currentColor" stroke="currentColor"/>
</svg>
