<svg width="44" height="43" viewBox="0 0 44 43" fill="none" xmlns="http://www.w3.org/2000/svg">
<path d="M17.2034 4.87766C17.5741 5.00211 17.97 4.80241 18.0932 4.43384C18.582 2.97305 19.8514 1.91249 21.405 1.6663C23.6739 1.30548 25.8083 2.85915 26.167 5.12516C26.3183 6.08023 26.1304 7.06274 25.6403 7.89195C25.4427 8.22674 25.5531 8.65787 25.8871 8.85551C25.999 8.92235 26.1228 8.954 26.2444 8.954C26.4849 8.954 26.7191 8.8302 26.8499 8.60866C27.5076 7.49816 27.758 6.183 27.5554 4.90576C27.3233 3.43657 26.5321 2.14598 25.3287 1.27177C24.1254 0.398296 22.6554 0.0438964 21.1848 0.276646C19.1108 0.605826 17.4151 2.02713 16.7596 3.98729C16.6359 4.35587 16.835 4.75387 17.2034 4.87766Z" fill="currentColor"/>
<path d="M28.7846 7.73022C30.7082 8.65438 31.9023 10.6004 31.9023 12.8095C31.9023 14.5157 31.1406 16.1108 29.8128 17.1862C29.511 17.4302 29.464 17.8733 29.7087 18.175C29.848 18.3474 30.0505 18.436 30.2559 18.436C30.4113 18.436 30.5681 18.3846 30.6975 18.2791C32.3574 16.9358 33.3089 14.9419 33.3089 12.8095C33.3089 10.0547 31.8087 7.62332 29.3936 6.46287C29.0412 6.29333 28.6228 6.44251 28.4554 6.79205C28.2867 7.14233 28.4344 7.56217 28.7846 7.73022Z" fill="currentColor"/>
<path d="M18.8131 7.26889C19.1965 7.33433 19.5608 7.0804 19.6276 6.69848C19.6951 6.31589 19.4399 5.95086 19.0572 5.88336C17.2054 5.55632 15.3409 5.97056 13.8021 7.04801C12.2633 8.12547 11.2364 9.73741 10.9101 11.5879C10.7779 12.3383 10.7617 13.0852 10.8616 13.8096C10.9108 14.1613 11.2119 14.4159 11.5578 14.4159C11.5902 14.4159 11.6225 14.4138 11.6556 14.4096C12.0403 14.3561 12.3089 14.0009 12.2555 13.6155C12.1753 13.0374 12.1887 12.4375 12.2956 11.8319C12.8343 8.77674 15.758 6.73012 18.8131 7.26889Z" fill="currentColor"/>
<path d="M29.1041 3.72426C29.3193 3.72501 29.5331 3.74256 29.7406 3.77627C31.4588 4.04842 33.3091 5.68294 33.3091 8.62767C33.3091 8.98561 33.5785 9.28669 33.9351 9.32608C36.3981 9.60111 38.4194 11.4986 38.8506 13.9418C38.9568 14.5474 38.9708 15.1473 38.89 15.7255C38.8365 16.1109 39.1051 16.4661 39.4899 16.5195C39.5229 16.5237 39.5553 16.5258 39.5876 16.5258C39.933 16.5258 40.2347 16.2712 40.2832 15.9196C40.3845 15.1952 40.3676 14.4482 40.2354 13.6978C39.7326 10.8459 37.4961 8.58827 34.6941 8.02288C34.4459 4.63227 32.125 2.7298 29.9616 2.38727C29.6851 2.34293 29.3989 2.31903 29.1126 2.31763H29.1084C28.7223 2.31763 28.4072 2.62991 28.4052 3.01744C28.4029 3.40563 28.7165 3.72212 29.1041 3.72426Z" fill="currentColor"/>
<path d="M38.2322 40.9418H31.9025V32.8481C32.8814 33.1548 33.8534 33.2054 34.7157 33.2054C39.3694 33.2054 43.1553 29.4195 43.1553 24.7657C43.1553 21.0066 40.6312 17.6665 37.0176 16.644C36.647 16.5385 36.2552 16.7544 36.1497 17.1293C36.0442 17.5027 36.2608 17.8916 36.6343 17.9979C39.6458 18.8496 41.7487 21.6325 41.7487 24.7657C41.7487 28.6438 38.5936 31.7988 34.7157 31.7988C33.2893 31.7988 32.3652 31.6187 31.5275 31.1763C31.3088 31.0617 31.0465 31.0687 30.8355 31.1967C30.6252 31.3239 30.4957 31.5518 30.4957 31.7988V40.9417H28.3858V33.2053C28.3858 32.8171 28.0715 32.502 27.6826 32.502C27.2936 32.502 26.9793 32.8171 26.9793 33.2053V40.9417H24.8694V30.6158C25.7569 30.9281 26.705 31.0955 27.6826 31.0955C32.3363 31.0955 36.1222 27.3096 36.1222 22.6558C36.1222 20.6873 35.4562 18.7813 34.2458 17.2882C34.0024 16.9873 33.5601 16.9401 33.2569 17.1849C32.9552 17.4297 32.9088 17.8728 33.1536 18.1744C34.1607 19.4171 34.7157 21.0087 34.7157 22.6558C34.7157 26.5339 31.5606 29.6888 27.6826 29.6888C25.0283 29.6888 22.6272 28.2189 21.4169 25.853C21.2411 25.5084 20.8177 25.3691 20.471 25.5478C20.125 25.7244 19.9885 26.1484 20.1651 26.4945C20.9254 27.9806 22.0802 29.1685 23.4629 29.9667V40.9418H20.6497V29.6888C20.6497 29.442 20.5203 29.2141 20.31 29.0868C20.0982 28.9595 19.8352 28.9518 19.6186 29.0664C18.7803 29.5088 17.8561 29.6888 16.4299 29.6888C12.5518 29.6888 9.39685 26.5338 9.39685 22.6558C9.39685 19.5226 11.4998 16.7397 14.5112 15.888C14.8847 15.7817 15.102 15.3928 14.9958 15.0193C14.8896 14.6452 14.5014 14.43 14.1279 14.5341C10.5136 15.5566 7.99021 18.8966 7.99021 22.6558C7.99021 27.3096 11.7761 31.0955 16.4299 31.0955C17.2921 31.0955 18.2641 31.0449 19.2431 30.7382V40.9418H17.1331V33.2054C17.1331 32.8172 16.8181 32.5021 16.4299 32.5021C16.0417 32.5021 15.7266 32.8172 15.7266 33.2054V40.9418H13.6167V31.7988C13.6167 31.5519 13.4873 31.324 13.2769 31.1967C13.0646 31.0694 12.803 31.0624 12.5856 31.1763C11.7473 31.6187 10.8231 31.7988 9.39685 31.7988C5.51881 31.7988 2.36383 28.6437 2.36383 24.7657C2.36383 21.6325 4.46674 18.8496 7.47757 17.9979C7.85175 17.8916 8.06909 17.5028 7.96285 17.1293C7.85661 16.7551 7.46982 16.5413 7.09499 16.644C3.48052 17.6665 0.957031 21.0066 0.957031 24.7657C0.957031 29.4195 4.74293 33.2054 9.39669 33.2054C10.2589 33.2054 11.2309 33.1548 12.2099 32.8481V40.9418H8.69341C8.30522 40.9418 7.99013 41.2569 7.99013 41.6451C7.99013 42.0332 8.30522 42.3483 8.69341 42.3483H38.2322C38.6211 42.3483 38.9355 42.0332 38.9355 41.6451C38.9355 41.2568 38.6211 40.9418 38.2322 40.9418Z" fill="currentColor"/>
<path d="M4.52489 16.5257C4.55728 16.5257 4.58959 16.5236 4.62264 16.5194C5.00737 16.466 5.27597 16.1108 5.22256 15.7254C5.14237 15.1473 5.15572 14.5474 5.26262 13.9417C5.69301 11.4985 7.71432 9.60093 10.178 9.32598C10.5339 9.28659 10.8032 8.98559 10.8032 8.62757C10.8032 5.68284 12.6529 4.04831 14.3732 3.77543C14.5792 3.74238 14.793 3.72482 15.0075 3.72408C15.3965 3.72194 15.7094 3.40545 15.7073 3.01726C15.7052 2.62973 15.3901 2.31744 15.0041 2.31744H14.9999C14.7136 2.31884 14.4274 2.34275 14.1517 2.38635C11.9876 2.72954 9.66599 4.632 9.41849 8.02262C6.61651 8.58809 4.38 10.8457 3.87716 13.6975C3.74496 14.448 3.72873 15.1948 3.82862 15.9193C3.87782 16.2711 4.17881 16.5257 4.52489 16.5257Z" fill="currentColor"/>
<path d="M42.4521 40.9418H41.0454C40.6565 40.9418 40.3422 41.2569 40.3422 41.6451C40.3422 42.0332 40.6565 42.3483 41.0454 42.3483H42.4521C42.841 42.3483 43.1554 42.0332 43.1554 41.6451C43.1554 41.2568 42.841 40.9418 42.4521 40.9418Z" fill="currentColor"/>
<path d="M5.88014 40.9418H1.66031C1.27212 40.9418 0.957031 41.2569 0.957031 41.6451C0.957031 42.0332 1.27212 42.3483 1.66031 42.3483H5.88014C6.26833 42.3483 6.58341 42.0332 6.58341 41.6451C6.5835 41.2568 6.26841 40.9418 5.88014 40.9418Z" fill="currentColor"/>
</svg>
