<svg width="48" height="39" viewBox="0 0 48 39" fill="none" xmlns="http://www.w3.org/2000/svg">
<path d="M35.2715 37.1034H46.3965V32.5959C46.3964 31.1907 45.9641 29.8205 45.1597 28.6757C44.3553 27.5309 43.2188 26.6684 41.9081 26.2081C40.5974 25.7478 39.1777 25.7126 37.8464 26.1073C36.515 26.5021 35.3382 27.3071 34.4794 28.4106L35.2715 37.1034ZM35.2715 37.1034H13.0215H35.2715ZM35.2715 37.1034V32.5959C35.2715 31.1174 34.9911 29.7043 34.4794 28.4106L35.2715 37.1034ZM13.0215 37.1034H1.89648V32.5959C1.89659 31.1907 2.32888 29.8205 3.13328 28.6757C3.93767 27.5309 5.0742 26.6684 6.38487 26.2081C7.69554 25.7478 9.11522 25.7126 10.4466 26.1073C11.7779 26.5021 12.9548 27.3071 13.8136 28.4106L13.0215 37.1034ZM13.0215 37.1034V32.5959C13.0215 31.1174 13.3018 29.7043 13.8136 28.4106L13.0215 37.1034ZM13.8136 28.4106C14.6399 26.319 16.0658 24.5262 17.9076 23.2633C19.7494 22.0004 21.9224 21.3255 24.1465 21.3255C26.3706 21.3255 28.5436 22.0004 30.3854 23.2633C32.2271 24.5262 33.6531 26.319 34.4794 28.4106H13.8136ZM30.8215 7.80441C30.8215 9.59762 30.1182 11.3174 28.8664 12.5854C27.6146 13.8534 25.9168 14.5657 24.1465 14.5657C22.3762 14.5657 20.6784 13.8534 19.4265 12.5854C18.1747 11.3174 17.4715 9.59762 17.4715 7.80441C17.4715 6.01119 18.1747 4.29143 19.4265 3.02343C20.6784 1.75544 22.3762 1.04309 24.1465 1.04309C25.9168 1.04309 27.6146 1.75544 28.8664 3.02343C30.1182 4.29143 30.8215 6.01119 30.8215 7.80441V7.80441ZM44.1715 14.5657C44.1715 15.7612 43.7026 16.9077 42.8681 17.753C42.0336 18.5984 40.9017 19.0733 39.7215 19.0733C38.5413 19.0733 37.4094 18.5984 36.5749 17.753C35.7403 16.9077 35.2715 15.7612 35.2715 14.5657C35.2715 13.3702 35.7403 12.2237 36.5749 11.3784C37.4094 10.5331 38.5413 10.0582 39.7215 10.0582C40.9017 10.0582 42.0336 10.5331 42.8681 11.3784C43.7026 12.2237 44.1715 13.3702 44.1715 14.5657ZM13.0215 14.5657C13.0215 15.7612 12.5526 16.9077 11.7181 17.753C10.8836 18.5984 9.7517 19.0733 8.57148 19.0733C7.39127 19.0733 6.2594 18.5984 5.42486 17.753C4.59032 16.9077 4.12148 15.7612 4.12148 14.5657C4.12148 13.3702 4.59032 12.2237 5.42486 11.3784C6.2594 10.5331 7.39127 10.0582 8.57148 10.0582C9.7517 10.0582 10.8836 10.5331 11.7181 11.3784C12.5526 12.2237 13.0215 13.3702 13.0215 14.5657Z" fill="#DDE3EE" stroke="#DDE3EE" stroke-width="2" stroke-linecap="round" stroke-linejoin="round"/>
</svg>
