<svg width="46" height="41" viewBox="0 0 46 41" fill="none" xmlns="http://www.w3.org/2000/svg">
<path d="M38.5542 21.0968H1.76043C1.24988 21.0968 0.836182 20.683 0.836182 20.1726C0.836182 19.6621 1.24988 19.2483 1.76043 19.2483H38.3755C38.4333 19.237 38.4931 19.2311 38.5542 19.2311C41.5697 19.2311 44.0231 16.7777 44.0231 13.7622C44.0231 10.7467 41.5697 8.29321 38.5542 8.29321C35.5387 8.29321 33.0853 10.7465 33.0853 13.7621C33.0853 14.2725 32.6716 14.6863 32.1611 14.6863C31.6505 14.6863 31.2368 14.2725 31.2368 13.7621C31.2368 9.72728 34.5194 6.4447 38.5542 6.4447C42.589 6.4447 45.8716 9.72728 45.8716 13.7621C45.8716 17.7332 42.692 20.9756 38.7451 21.077C38.6835 21.09 38.6198 21.0968 38.5542 21.0968Z" fill="#DDE3EE"/>
<path d="M19.6026 14.6951H1.76043C1.24988 14.6951 0.836182 14.2813 0.836182 13.7708C0.836182 13.2604 1.24988 12.8466 1.76043 12.8466H19.4239C19.4817 12.8352 19.5415 12.8293 19.6026 12.8293C22.6181 12.8293 25.0714 10.376 25.0714 7.36046C25.0714 4.34493 22.6181 1.8916 19.6026 1.8916C16.5869 1.8916 14.1336 4.34493 14.1336 7.36046C14.1336 7.8709 13.7199 8.28472 13.2093 8.28472C12.6988 8.28472 12.2851 7.8709 12.2851 7.36046C12.2851 3.32567 15.5678 0.0430908 19.6026 0.0430908C23.6374 0.0430908 26.92 3.32567 26.92 7.36046C26.92 11.3315 23.7404 14.5739 19.7935 14.6754C19.7319 14.6882 19.668 14.6951 19.6026 14.6951Z" fill="#DDE3EE"/>
<path d="M30.9281 40.4986C26.8933 40.4986 23.6106 37.2161 23.6106 33.1813C23.6106 32.6708 24.0243 32.257 24.5349 32.257C25.0455 32.257 25.4591 32.6708 25.4591 33.1813C25.4591 36.1968 27.9125 38.6501 30.9281 38.6501C33.9437 38.6501 36.397 36.1968 36.397 33.1813C36.397 30.1657 33.9437 27.7124 30.9281 27.7124H1.76043C1.24988 27.7124 0.836182 27.2986 0.836182 26.7881C0.836182 26.2777 1.24988 25.8639 1.76043 25.8639H30.9281C34.9629 25.8639 38.2455 29.1465 38.2455 33.1813C38.2455 37.2161 34.9629 40.4986 30.9281 40.4986Z" fill="#DDE3EE"/>
</svg>
