<svg width="50" height="50" viewBox="0 0 50 50" fill="none" xmlns="http://www.w3.org/2000/svg">
<path d="M49.1138 12.6299C48.3453 8.2042 44.8496 4.65719 40.4154 3.80366C38.2932 3.39545 36.145 3.60936 34.1645 4.42143C31.7576 1.73537 28.3534 0.206909 24.7314 0.206909C20.4184 0.206909 16.3995 2.42134 14.0751 6.03251C12.2809 5.30805 10.3384 5.11471 8.41403 5.47466C4.12495 6.27686 0.769268 9.85865 0.253735 14.1848C-0.0348407 16.6068 0.543053 19.0433 1.88072 21.0454C2.27355 21.6333 2.88835 22.0205 3.57347 22.1285V24.7586C3.57347 25.198 3.92949 25.554 4.36888 25.554C4.80826 25.554 5.16429 25.198 5.16429 24.7586V22.1603H8.6641V48.5149C8.6641 48.9543 9.02013 49.3104 9.45952 49.3104C9.8989 49.3104 10.2549 48.9543 10.2549 48.5149V22.1603H13.7547V24.7586C13.7547 25.198 14.1108 25.554 14.5502 25.554C14.9895 25.554 15.3456 25.198 15.3456 24.7586V22.1603H18.8454V48.5149C18.8454 48.9543 19.2014 49.3104 19.6408 49.3104C20.0802 49.3104 20.4362 48.9543 20.4362 48.5149V22.1603H23.936V24.7586C23.936 25.198 24.292 25.554 24.7314 25.554C25.1708 25.554 25.5268 25.198 25.5268 24.7586V22.1603H29.0267V48.5149C29.0267 48.9543 29.3827 49.3104 29.8221 49.3104C30.2615 49.3104 30.6175 48.9543 30.6175 48.5149V22.1603H34.1173V24.7586C34.1173 25.198 34.4733 25.554 34.9127 25.554C35.3521 25.554 35.7081 25.198 35.7081 24.7586V22.1603H39.2079V48.5149C39.2079 48.9543 39.564 49.3104 40.0033 49.3104C40.4427 49.3104 40.7988 48.9543 40.7988 48.5149V22.1603H44.2986V24.7586C44.2986 25.198 44.6546 25.554 45.094 25.554C45.5334 25.554 45.8894 25.198 45.8894 24.7586V22.021C46.3586 21.8578 46.7788 21.5574 47.0844 21.1506C48.9225 18.705 49.6432 15.6789 49.1138 12.6299ZM45.8127 20.195C45.6365 20.4295 45.3607 20.5695 45.0751 20.5695H3.96481C3.65863 20.5695 3.37408 20.417 3.20344 20.1616C2.05985 18.45 1.5861 16.4483 1.83332 14.3731C2.26751 10.7302 5.09376 7.71401 8.70653 7.03833C9.23839 6.93885 9.77164 6.88954 10.3017 6.88954C11.5926 6.88954 12.8637 7.18257 14.0437 7.75898C14.4216 7.94362 14.8781 7.80214 15.0851 7.43593C17.0528 3.95818 20.7491 1.79773 24.7314 1.79773C28.0768 1.79773 31.21 3.2894 33.3277 5.8905C33.5593 6.17494 33.9551 6.26392 34.2862 6.10664C36.1102 5.23901 38.1256 4.98278 40.1147 5.36595C43.9038 6.09519 46.8904 9.1238 47.5464 12.9021C47.9999 15.5139 47.3841 18.104 45.8127 20.195Z" fill="#DDE3EE"/>
<path d="M4.3689 32.4476C3.92951 32.4476 3.57349 32.8037 3.57349 33.243V41.7274C3.57349 42.1668 3.92951 42.5229 4.3689 42.5229C4.80829 42.5229 5.16431 42.1668 5.16431 41.7274V33.243C5.16431 32.8037 4.80818 32.4476 4.3689 32.4476Z" fill="#DDE3EE"/>
<path d="M4.3689 27.3569C3.92951 27.3569 3.57349 27.713 3.57349 28.1523V29.8492C3.57349 30.2886 3.92951 30.6446 4.3689 30.6446C4.80829 30.6446 5.16431 30.2886 5.16431 29.8492V28.1523C5.16431 27.713 4.80818 27.3569 4.3689 27.3569Z" fill="#DDE3EE"/>
<path d="M4.3689 44.3257C3.92951 44.3257 3.57349 44.6818 3.57349 45.1212V48.5149C3.57349 48.9543 3.92951 49.3103 4.3689 49.3103C4.80829 49.3103 5.16431 48.9543 5.16431 48.5149V45.1212C5.16431 44.6818 4.80818 44.3257 4.3689 44.3257Z" fill="#DDE3EE"/>
<path d="M24.7314 32.4476C24.2921 32.4476 23.936 32.8037 23.936 33.243V41.7274C23.936 42.1668 24.2921 42.5229 24.7314 42.5229C25.1708 42.5229 25.5269 42.1668 25.5269 41.7274V33.243C25.5269 32.8037 25.1707 32.4476 24.7314 32.4476Z" fill="#DDE3EE"/>
<path d="M24.7314 27.3569C24.2921 27.3569 23.936 27.713 23.936 28.1523V29.8492C23.936 30.2886 24.2921 30.6446 24.7314 30.6446C25.1708 30.6446 25.5269 30.2886 25.5269 29.8492V28.1523C25.5269 27.713 25.1707 27.3569 24.7314 27.3569Z" fill="#DDE3EE"/>
<path d="M24.7314 44.3257C24.2921 44.3257 23.936 44.6818 23.936 45.1212V48.5149C23.936 48.9543 24.2921 49.3103 24.7314 49.3103C25.1708 49.3103 25.5269 48.9543 25.5269 48.5149V45.1212C25.5269 44.6818 25.1707 44.3257 24.7314 44.3257Z" fill="#DDE3EE"/>
<path d="M14.5501 32.4476C14.1107 32.4476 13.7546 32.8037 13.7546 33.243V41.7274C13.7546 42.1668 14.1107 42.5229 14.5501 42.5229C14.9894 42.5229 15.3455 42.1668 15.3455 41.7274V33.243C15.3455 32.8037 14.9893 32.4476 14.5501 32.4476Z" fill="#DDE3EE"/>
<path d="M14.5501 27.3569C14.1107 27.3569 13.7546 27.713 13.7546 28.1523V29.8492C13.7546 30.2886 14.1107 30.6446 14.5501 30.6446C14.9894 30.6446 15.3455 30.2886 15.3455 29.8492V28.1523C15.3455 27.713 14.9893 27.3569 14.5501 27.3569Z" fill="#DDE3EE"/>
<path d="M14.5501 44.3257C14.1107 44.3257 13.7546 44.6818 13.7546 45.1212V48.5149C13.7546 48.9543 14.1107 49.3103 14.5501 49.3103C14.9894 49.3103 15.3455 48.9543 15.3455 48.5149V45.1212C15.3455 44.6818 14.9893 44.3257 14.5501 44.3257Z" fill="#DDE3EE"/>
<path d="M45.094 32.4476C44.6546 32.4476 44.2986 32.8037 44.2986 33.243V41.7274C44.2986 42.1668 44.6546 42.5229 45.094 42.5229C45.5334 42.5229 45.8894 42.1668 45.8894 41.7274V33.243C45.8894 32.8037 45.5333 32.4476 45.094 32.4476Z" fill="#DDE3EE"/>
<path d="M45.094 27.3569C44.6546 27.3569 44.2986 27.713 44.2986 28.1523V29.8492C44.2986 30.2886 44.6546 30.6446 45.094 30.6446C45.5334 30.6446 45.8894 30.2886 45.8894 29.8492V28.1523C45.8894 27.713 45.5333 27.3569 45.094 27.3569Z" fill="#DDE3EE"/>
<path d="M45.094 44.3257C44.6546 44.3257 44.2986 44.6818 44.2986 45.1212V48.5149C44.2986 48.9543 44.6546 49.3103 45.094 49.3103C45.5334 49.3103 45.8894 48.9543 45.8894 48.5149V45.1212C45.8894 44.6818 45.5333 44.3257 45.094 44.3257Z" fill="#DDE3EE"/>
<path d="M34.9126 32.4476C34.4732 32.4476 34.1172 32.8037 34.1172 33.243V41.7274C34.1172 42.1668 34.4732 42.5229 34.9126 42.5229C35.352 42.5229 35.708 42.1668 35.708 41.7274V33.243C35.708 32.8037 35.3519 32.4476 34.9126 32.4476Z" fill="#DDE3EE"/>
<path d="M34.9126 27.3569C34.4732 27.3569 34.1172 27.713 34.1172 28.1523V29.8492C34.1172 30.2886 34.4732 30.6446 34.9126 30.6446C35.352 30.6446 35.708 30.2886 35.708 29.8492V28.1523C35.708 27.713 35.3519 27.3569 34.9126 27.3569Z" fill="#DDE3EE"/>
<path d="M34.9126 44.3257C34.4732 44.3257 34.1172 44.6818 34.1172 45.1212V48.5149C34.1172 48.9543 34.4732 49.3103 34.9126 49.3103C35.352 49.3103 35.708 48.9543 35.708 48.5149V45.1212C35.708 44.6818 35.3519 44.3257 34.9126 44.3257Z" fill="#DDE3EE"/>
</svg>
