<svg width="47" height="47" viewBox="0 0 47 47" fill="none" xmlns="http://www.w3.org/2000/svg">
<path d="M44.2045 15.7469H37.0458V14.5837C37.0458 12.2774 35.1694 10.4011 32.8632 10.4011H13.9556C12.4817 10.4011 11.2826 9.20195 11.2826 7.72815V0.823836C11.2826 0.406949 10.9447 0.0689697 10.5278 0.0689697C10.1108 0.0689697 9.77289 0.406949 9.77289 0.823836V7.72815C9.77289 10.0345 11.6493 11.9108 13.9556 11.9108H32.8632C34.3371 11.9108 35.5361 13.1099 35.5361 14.5837V15.7469H2.61434C1.17758 15.7469 0.00854492 16.9159 0.00854492 18.3527V44.2649C0.00854492 45.7018 1.17748 46.8707 2.61434 46.8707H44.2045C45.6412 46.8707 46.8103 45.7018 46.8103 44.2649V18.3527C46.8103 16.9159 45.6413 15.7469 44.2045 15.7469ZM45.3005 44.2649C45.3005 44.8692 44.8089 45.361 44.2045 45.361H2.61434C2.00995 45.361 1.51828 44.8693 1.51828 44.2649V18.3527C1.51828 17.7484 2.00995 17.2567 2.61434 17.2567H44.2045C44.8089 17.2567 45.3005 17.7483 45.3005 18.3527V44.2649Z" fill="currentColor"/>
<path d="M30.0904 39.1265H16.7285C16.3115 39.1265 15.9736 39.4644 15.9736 39.8813C15.9736 40.2982 16.3115 40.6362 16.7285 40.6362H30.0904C30.5074 40.6362 30.8453 40.2982 30.8453 39.8813C30.8453 39.4644 30.5073 39.1265 30.0904 39.1265Z" fill="currentColor"/>
<path d="M10.5293 33.4114H6.94798C6.53099 33.4114 6.19312 33.7494 6.19312 34.1663C6.19312 34.5832 6.53099 34.9212 6.94798 34.9212H10.5293C10.9463 34.9212 11.2841 34.5832 11.2841 34.1663C11.2841 33.7494 10.9463 33.4114 10.5293 33.4114Z" fill="currentColor"/>
<path d="M39.8708 33.4114H36.2895C35.8725 33.4114 35.5347 33.7494 35.5347 34.1663C35.5347 34.5832 35.8725 34.9212 36.2895 34.9212H39.8708C40.2878 34.9212 40.6257 34.5832 40.6257 34.1663C40.6257 33.7494 40.2877 33.4114 39.8708 33.4114Z" fill="currentColor"/>
<path d="M30.0904 33.4114H26.509C26.092 33.4114 25.7542 33.7494 25.7542 34.1663C25.7542 34.5832 26.092 34.9212 26.509 34.9212H30.0904C30.5074 34.9212 30.8453 34.5832 30.8453 34.1663C30.8453 33.7494 30.5073 33.4114 30.0904 33.4114Z" fill="currentColor"/>
<path d="M16.7285 34.9212H20.3099C20.7269 34.9212 21.0648 34.5832 21.0648 34.1663C21.0648 33.7494 20.7269 33.4114 20.3099 33.4114H16.7285C16.3115 33.4114 15.9736 33.7494 15.9736 34.1663C15.9736 34.5832 16.3116 34.9212 16.7285 34.9212Z" fill="currentColor"/>
<path d="M10.5293 27.6965H6.94798C6.53099 27.6965 6.19312 28.0345 6.19312 28.4513C6.19312 28.8682 6.53099 29.2062 6.94798 29.2062H10.5293C10.9463 29.2062 11.2841 28.8682 11.2841 28.4513C11.2841 28.0345 10.9463 27.6965 10.5293 27.6965Z" fill="currentColor"/>
<path d="M39.8708 27.6965H36.2895C35.8725 27.6965 35.5347 28.0345 35.5347 28.4513C35.5347 28.8682 35.8725 29.2062 36.2895 29.2062H39.8708C40.2878 29.2062 40.6257 28.8682 40.6257 28.4513C40.6257 28.0345 40.2877 27.6965 39.8708 27.6965Z" fill="currentColor"/>
<path d="M30.0904 27.6965H26.509C26.092 27.6965 25.7542 28.0345 25.7542 28.4513C25.7542 28.8682 26.092 29.2062 26.509 29.2062H30.0904C30.5074 29.2062 30.8453 28.8682 30.8453 28.4513C30.8453 28.0345 30.5073 27.6965 30.0904 27.6965Z" fill="currentColor"/>
<path d="M16.7285 29.2062H20.3099C20.7269 29.2062 21.0648 28.8682 21.0648 28.4513C21.0648 28.0345 20.7269 27.6965 20.3099 27.6965H16.7285C16.3115 27.6965 15.9736 28.0345 15.9736 28.4513C15.9736 28.8682 16.3116 29.2062 16.7285 29.2062Z" fill="currentColor"/>
<path d="M10.5293 21.9814H6.94798C6.53099 21.9814 6.19312 22.3194 6.19312 22.7363C6.19312 23.1532 6.53099 23.4912 6.94798 23.4912H10.5293C10.9463 23.4912 11.2841 23.1532 11.2841 22.7363C11.2841 22.3194 10.9463 21.9814 10.5293 21.9814Z" fill="currentColor"/>
<path d="M39.8708 21.9814H36.2895C35.8725 21.9814 35.5347 22.3194 35.5347 22.7363C35.5347 23.1532 35.8725 23.4912 36.2895 23.4912H39.8708C40.2878 23.4912 40.6257 23.1532 40.6257 22.7363C40.6257 22.3194 40.2877 21.9814 39.8708 21.9814Z" fill="currentColor"/>
<path d="M30.0904 21.9814H26.509C26.092 21.9814 25.7542 22.3194 25.7542 22.7363C25.7542 23.1532 26.092 23.4912 26.509 23.4912H30.0904C30.5074 23.4912 30.8453 23.1532 30.8453 22.7363C30.8453 22.3194 30.5073 21.9814 30.0904 21.9814Z" fill="currentColor"/>
<path d="M16.7285 23.4912H20.3099C20.7269 23.4912 21.0648 23.1532 21.0648 22.7363C21.0648 22.3194 20.7269 21.9814 20.3099 21.9814H16.7285C16.3115 21.9814 15.9736 22.3194 15.9736 22.7363C15.9736 23.1532 16.3116 23.4912 16.7285 23.4912Z" fill="currentColor"/>
</svg>
